<?xml version="1.0" encoding="UTF-8"?>
<svg xmlns="http://www.w3.org/2000/svg" version="1.1" viewBox="0 0 800 559">
  <defs>
    <style>
      .cls-1 {
        fill: #840707;
      }

      .cls-1, .cls-2 {
        stroke-width: 0px;
      }

      .cls-2 {
        fill: #fff;
      }

      .cls-3 {
        display: none;
      }
    </style>
  </defs>
  <g id="Layer_3" data-name="Layer 3" class="cls-3">
    <rect class="cls-1" x="-97" y="-142" width="1038" height="897"/>
  </g>
  <g id="Layer_2" data-name="Layer 2">
    <rect class="cls-2" x="489.5" y="234.6" width="37.1" height="37.1" rx="6.2" ry="6.2"/>
    <circle class="cls-2" cx="589.2" cy="256.9" r="4.9"/>
    <path class="cls-2" d="M159.3,429.6c-6.4-8.7-14.8-15.3-25.4-19.8s-22.5-6.7-35.9-6.7h-61.6c-1.6,0-2.9.6-4.1,1.7s-1.7,2.5-1.7,4.1v138.2c0,1.6.6,2.9,1.7,4.1s2.5,1.7,4.1,1.7h62.7c13.7,0,25.7-2.1,36.1-6.3,10.3-4.2,18.5-10.7,24.5-19.5,6-8.8,9.3-19.9,9.8-33.3.3-5.8.4-11.1.4-15.7s-.1-10-.4-16.2c-.4-12.8-3.8-23.6-10.2-32.3h0ZM115.6,482.7c0,3.3-.2,7-.5,11.1-.1,4-1,7.3-2.6,9.8-1.6,2.6-3.6,4.5-6.1,5.7-2.5,1.2-5.3,1.8-8.4,1.8h-13.9v-66.3h12.8c4.8,0,9,1.4,12.5,4.1,3.5,2.7,5.4,7.1,5.7,13,.3,3.8.5,7.5.5,10.8,0,3.3,0,6.7,0,10Z"/>
    <path class="cls-2" d="M365,403h-41.9c-1.6,0-2.9.6-4.1,1.7s-1.7,2.5-1.7,4.1v86.7c0,5.3-1.3,9.3-4,12.2-2.6,2.9-6.6,4.3-11.9,4.3s-9.2-1.4-11.9-4.3c-2.6-2.8-4-6.9-4-12.2v-86.7c0-1.6-.6-2.9-1.7-4.1-1.1-1.1-2.5-1.7-4.1-1.7h-41.9c-1.6,0-2.9.6-4.1,1.7-1.1,1.1-1.7,2.5-1.7,4.1v87.5c0,13.4,2.9,24.5,8.8,33.2s14,15.1,24.5,19.3c10.5,4.1,22.6,6.2,36.3,6.2s25.5-2.1,36-6.2,18.5-10.6,24.4-19.3c5.9-8.7,8.8-19.8,8.8-33.2v-87.5c0-1.6-.6-2.9-1.7-4.1-1.1-1.1-2.5-1.7-4.1-1.7h0Z"/>
    <path class="cls-2" d="M548.7,466.1c-8.6-3.8-20.1-6.5-34.3-8.2-6.4-.9-11.3-1.7-14.8-2.6-3.4-.9-5.8-1.8-7.1-3-1.3-1.1-1.9-2.3-1.9-3.6,0-1.8.8-3.3,2.5-4.4,1.6-1.1,4.2-1.6,7.8-1.6s5.5.5,7.4,1.4c1.9.9,3.2,1.8,4,2.5,1.3,1.1,2.5,2,3.8,2.6,1.2.6,2.8.9,4.8.9h42.8c1.1,0,2.2-.5,3.1-1.4s1.4-2,1.4-3.3c-.1-4.7-1.7-9.6-4.7-14.8s-7.3-10-13-14.4c-5.7-4.5-12.7-8.1-21-10.9-8.3-2.8-17.8-4.2-28.5-4.2s-24.4,2.1-34.1,6.2-17.4,9.9-22.9,17.3c-5.5,7.4-8.2,16-8.2,25.7s2.2,17.4,6.7,23.9,10.9,11.6,19.1,15.3c8.3,3.7,18,6.3,29.3,7.9,7.1.9,12.7,1.8,16.7,2.7,4,.9,6.8,2,8.4,3.1,1.6,1.1,2.5,2.6,2.5,4.3s-1.5,3.3-4.4,4.4-6.8,1.6-11.7,1.6-4.4-.2-6.3-.5c-1.9-.3-3.6-.9-5.1-1.7s-3-1.7-4.4-2.7c-1.4-1.1-2.8-2-4-2.7-1.2-.6-3-1-5.2-1h-40.7c-1.3,0-2.4.5-3.3,1.4s-1.4,2-1.4,3.3c.3,7.8,3,15.3,8.1,22.3,5.1,7,12.8,12.6,23.1,16.9,10.3,4.3,23.3,6.4,39.2,6.4s25.7-2,36.4-6.1c10.7-4.1,19.2-9.9,25.4-17.4,6.2-7.6,9.3-16.5,9.3-27s-2-17-5.9-23.3c-3.9-6.3-10.2-11.3-18.8-15.1h0Z"/>
    <path class="cls-2" d="M738,474.7l38.5-64.6c.4-.7.6-1.5.6-2.3,0-1.3-.5-2.4-1.4-3.3s-2-1.4-3.3-1.4h-47.3c-2.3,0-4.1.5-5.5,1.5-1.4,1-2.4,2.1-3.1,3.2l-24.2,43.4v-42.4c0-1.6-.6-2.9-1.7-4.1-1.1-1.1-2.5-1.7-4.1-1.7h-40.9c-1.6,0-2.9.6-4.1,1.7s-1.7,2.5-1.7,4.1v138.2c0,1.6.6,2.9,1.7,4.1s2.5,1.7,4.1,1.7h40.9c1.6,0,2.9-.6,4.1-1.7,1.1-1.1,1.7-2.5,1.7-4.1v-45.8l26.1,46.7c.3.6,1.1,1.5,2.5,2.9,1.3,1.4,3.5,2,6.3,2h48.8c1.3,0,2.4-.5,3.3-1.4s1.4-2,1.4-3.3-.2-1.8-.6-2.3l-42.2-71h0Z"/>
    <path class="cls-2" d="M744.2,343.2c-46.1,19.3-97.7,33.2-153.2,43.1h190.3c0-77.6-23.7-150.1-64.2-210.5h-162.9v-4.6h159.8c-12.6-18.3-26.8-35.5-42.4-51.3h-133.6v-4.6h129c-33.9-33.4-74-60.6-118.4-79.7h-178.1v-3.8h168.8c-43.3-17.2-90.3-26.7-139.4-26.7-86.2,0-166.1,29.2-230.3,78.3h101.3v5.6h-108.4c-27.6,22.1-52.1,48-72.8,76.9h169v5.4H86c-9.6,13.9-18.3,28.5-26,43.7h112.7v4.6H57.7c-24.9,50.5-38.9,107.2-38.9,166.9h218.4c-90.9-5.9-162.6-29.4-203.2-81.8l160.8.4c-3.7,3.3-6,8.1-6,13.4,0,10,8.1,18,18.1,18s18.1-8.1,18.1-18-2.3-10.1-5.9-13.4h36.2c-3.6,3.4-5.9,8.1-5.9,13.4,0,10,8.1,18,18,18s18-8.1,18-18-2.2-9.9-5.8-13.2h23c-3.5,3.3-5.7,8-5.7,13.2,0,10,8.1,18,18,18s18-8.1,18-18-2.2-9.8-5.7-13.1h22.6c-3.5,3.3-5.6,8-5.6,13.1,0,10,8.1,18,18,18s18-8.1,18-18-2.1-9.7-5.5-13l69.8.2c-3.3,3.3-5.4,7.8-5.4,12.8,0,10,8.1,18,18,18s18-8.1,18-18-2-9.5-5.3-12.8h21.5c-3.2,3.3-5.2,7.8-5.2,12.8,0,10,8.1,18,18,18s18.1-8.1,18.1-18-2-9.4-5.2-12.7h24.2c-3.2,3.3-5.1,7.8-5.1,12.7,0,10,8.1,18,18,18s18-8.1,18-18-1.9-9.3-5.1-12.5l198.4.5c7.1,14.6-.8,26.8-21.4,37h0ZM306.3,119.8h105.3v3.1h-105.3v-3.1ZM489.5,181.8v3.1h-146.8v-3.1h146.8ZM206.7,326.7c-4.6,0-8.4-3.8-8.4-8.4s3.8-8.4,8.4-8.4,8.4,3.8,8.4,8.4-3.8,8.4-8.4,8.4ZM267.2,326.7c-4.6,0-8.4-3.8-8.4-8.4s3.8-8.4,8.4-8.4,8.4,3.8,8.4,8.4-3.8,8.4-8.4,8.4ZM314.7,326.7c-4.6,0-8.4-3.8-8.4-8.4s3.8-8.4,8.4-8.4,8.4,3.8,8.4,8.4-3.8,8.4-8.4,8.4ZM362.2,326.7c-4.6,0-8.4-3.8-8.4-8.4s3.8-8.4,8.4-8.4,8.4,3.8,8.4,8.4-3.8,8.4-8.4,8.4ZM457.2,326.7c-4.6,0-8.4-3.8-8.4-8.4s3.8-8.4,8.4-8.4,8.4,3.8,8.4,8.4-3.8,8.4-8.4,8.4ZM504.2,326.7c-4.6,0-8.4-3.8-8.4-8.4s3.8-8.4,8.4-8.4,8.4,3.8,8.4,8.4-3.8,8.4-8.4,8.4h0ZM554.2,326.7c-4.6,0-8.4-3.8-8.4-8.4s3.8-8.4,8.4-8.4,8.4,3.8,8.4,8.4-3.8,8.4-8.4,8.4ZM765.6,303.5h-201c-2.9-2.1-6.5-3.3-10.4-3.3s-7.4,1.2-10.4,3.3h-29.2c-2.9-2.1-6.5-3.3-10.4-3.3s-7.4,1.2-10.4,3.3h-26.3c-2.9-2.1-6.5-3.3-10.4-3.3s-7.4,1.2-10.4,3.3h-74.3c-2.9-2.1-6.5-3.3-10.4-3.3s-7.4,1.2-10.4,3.3h-26.8c-2.9-2.1-6.5-3.3-10.4-3.3s-7.4,1.2-10.4,3.3h-26.8c-2.9-2.1-6.5-3.3-10.4-3.3s-7.4,1.2-10.4,3.3h-39.8c-2.9-2.1-6.5-3.3-10.4-3.3s-7.4,1.2-10.4,3.3H33.9v-19.8h438.3v-55.2h-3.5v-4.6h152.1v-9h-.8c-1.2,0-2.1-1-2.1-2.1s1-2.1,2.1-2.1h5.4c1.2,0,2.1,1,2.1,2.1s-1,2.1-2.1,2.1h-1v9h9v4.6h-4.6v55.2h136.7v19.8h0Z"/>
  </g>
</svg>